Coordinates
version=1
nRows=50
nColumns=16
inDegrees=yes
endheader
time	elbow_flexion_r	elbow_flexion_l	shoulder_elv_r	shoulder_elv_l	elv_angle_r	elv_angle_l	shoulder_rot_r	shoulder_rot_l	pro_sup_r	pro_sup_l	hip_flexion_r	hip_flexion_l	knee_angle_r	knee_angle_l	lumbar_extension
0.000000	110.000000	110.000000	20.000000	20.000000	0.000000	0.000000	-10.000000	-10.000000	-40.000000	-40.000000	0.000000	0.000000	0.000000	0.000000	0.000000
0.040816	107.857143	107.857143	20.000000	20.000000	0.000000	0.000000	-10.000000	-10.000000	-40.000000	-40.000000	0.000000	0.000000	0.000000	0.000000	0.000000
0.081633	105.714286	105.714286	20.000000	20.000000	0.000000	0.000000	-10.000000	-10.000000	-40.000000	-40.000000	0.000000	0.000000	0.000000	0.000000	0.000000
0.122449	103.571429	103.571429	20.000000	20.000000	0.000000	0.000000	-10.000000	-10.000000	-40.000000	-40.000000	0.000000	0.000000	0.000000	0.000000	0.000000
0.163265	101.428571	101.428571	20.000000	20.000000	0.000000	0.000000	-10.000000	-10.000000	-40.000000	-40.000000	0.000000	0.000000	0.000000	0.000000	0.000000
0.204082	99.285714	99.285714	20.000000	20.000000	0.000000	0.000000	-10.000000	-10.000000	-40.000000	-40.000000	0.000000	0.000000	0.000000	0.000000	0.000000
0.244898	97.142857	97.142857	20.000000	20.000000	0.000000	0.000000	-10.000000	-10.000000	-40.000000	-40.000000	0.000000	0.000000	0.000000	0.000000	0.000000
0.285714	95.000000	95.000000	20.000000	20.000000	0.000000	0.000000	-10.000000	-10.000000	-40.000000	-40.000000	0.000000	0.000000	0.000000	0.000000	0.000000
0.326531	92.857143	92.857143	20.000000	20.000000	0.000000	0.000000	-10.000000	-10.000000	-40.000000	-40.000000	0.000000	0.000000	0.000000	0.000000	0.000000
0.367347	90.714286	90.714286	20.000000	20.000000	0.000000	0.000000	-10.000000	-10.000000	-40.000000	-40.000000	0.000000	0.000000	0.000000	0.000000	0.000000
0.408163	88.571429	88.571429	20.000000	20.000000	0.000000	0.000000	-10.000000	-10.000000	-40.000000	-40.000000	0.000000	0.000000	0.000000	0.000000	0.000000
0.448980	86.428571	86.428571	20.000000	20.000000	0.000000	0.000000	-10.000000	-10.000000	-40.000000	-40.000000	0.000000	0.000000	0.000000	0.000000	0.000000
0.489796	84.285714	84.285714	20.000000	20.000000	0.000000	0.000000	-10.000000	-10.000000	-40.000000	-40.000000	0.000000	0.000000	0.000000	0.000000	0.000000
0.530612	82.142857	82.142857	20.000000	20.000000	0.000000	0.000000	-10.000000	-10.000000	-40.000000	-40.000000	0.000000	0.000000	0.000000	0.000000	0.000000
0.571429	80.000000	80.000000	20.000000	20.000000	0.000000	0.000000	-10.000000	-10.000000	-40.000000	-40.000000	0.000000	0.000000	0.000000	0.000000	0.000000
0.612245	77.857143	77.857143	20.000000	20.000000	0.000000	0.000000	-10.000000	-10.000000	-40.000000	-40.000000	0.000000	0.000000	0.000000	0.000000	0.000000
0.653061	75.714286	75.714286	20.000000	20.000000	0.000000	0.000000	-10.000000	-10.000000	-40.000000	-40.000000	0.000000	0.000000	0.000000	0.000000	0.000000
0.693878	73.571429	73.571429	20.000000	20.000000	0.000000	0.000000	-10.000000	-10.000000	-40.000000	-40.000000	0.000000	0.000000	0.000000	0.000000	0.000000
0.734694	71.428571	71.428571	20.000000	20.000000	0.000000	0.000000	-10.000000	-10.000000	-40.000000	-40.000000	0.000000	0.000000	0.000000	0.000000	0.000000
0.775510	69.285714	69.285714	20.000000	20.000000	0.000000	0.000000	-10.000000	-10.000000	-40.000000	-40.000000	0.000000	0.000000	0.000000	0.000000	0.000000
0.816327	67.142857	67.142857	20.000000	20.000000	0.000000	0.000000	-10.000000	-10.000000	-40.000000	-40.000000	0.000000	0.000000	0.000000	0.000000	0.000000
0.857143	65.000000	65.000000	20.000000	20.000000	0.000000	0.000000	-10.000000	-10.000000	-40.000000	-40.000000	0.000000	0.000000	0.000000	0.000000	0.000000
0.897959	62.857143	62.857143	20.000000	20.000000	0.000000	0.000000	-10.000000	-10.000000	-40.000000	-40.000000	0.000000	0.000000	0.000000	0.000000	0.000000
0.938776	60.714286	60.714286	20.000000	20.000000	0.000000	0.000000	-10.000000	-10.000000	-40.000000	-40.000000	0.000000	0.000000	0.000000	0.000000	0.000000
0.979592	58.571429	58.571429	20.000000	20.000000	0.000000	0.000000	-10.000000	-10.000000	-40.000000	-40.000000	0.000000	0.000000	0.000000	0.000000	0.000000
1.020408	56.428571	56.428571	20.000000	20.000000	0.000000	0.000000	-10.000000	-10.000000	-40.000000	-40.000000	0.000000	0.000000	0.000000	0.000000	0.000000
1.061224	54.285714	54.285714	20.000000	20.000000	0.000000	0.000000	-10.000000	-10.000000	-40.000000	-40.000000	0.000000	0.000000	0.000000	0.000000	0.000000
1.102041	52.142857	52.142857	20.000000	20.000000	0.000000	0.000000	-10.000000	-10.000000	-40.000000	-40.000000	0.000000	0.000000	0.000000	0.000000	0.000000
1.142857	50.000000	50.000000	20.000000	20.000000	0.000000	0.000000	-10.000000	-10.000000	-40.000000	-40.000000	0.000000	0.000000	0.000000	0.000000	0.000000
1.183673	47.857143	47.857143	20.000000	20.000000	0.000000	0.000000	-10.000000	-10.000000	-40.000000	-40.000000	0.000000	0.000000	0.000000	0.000000	0.000000
1.224490	45.714286	45.714286	20.000000	20.000000	0.000000	0.000000	-10.000000	-10.000000	-40.000000	-40.000000	0.000000	0.000000	0.000000	0.000000	0.000000
1.265306	43.571429	43.571429	20.000000	20.000000	0.000000	0.000000	-10.000000	-10.000000	-40.000000	-40.000000	0.000000	0.000000	0.000000	0.000000	0.000000
1.306122	41.428571	41.428571	20.000000	20.000000	0.000000	0.000000	-10.000000	-10.000000	-40.000000	-40.000000	0.000000	0.000000	0.000000	0.000000	0.000000
1.346939	39.285714	39.285714	20.000000	20.000000	0.000000	0.000000	-10.000000	-10.000000	-40.000000	-40.000000	0.000000	0.000000	0.000000	0.000000	0.000000
1.387755	37.142857	37.142857	20.000000	20.000000	0.000000	0.000000	-10.000000	-10.000000	-40.000000	-40.000000	0.000000	0.000000	0.000000	0.000000	0.000000
1.428571	35.000000	35.000000	20.000000	20.000000	0.000000	0.000000	-10.000000	-10.000000	-40.000000	-40.000000	0.000000	0.000000	0.000000	0.000000	0.000000
1.469388	32.857143	32.857143	20.000000	20.000000	0.000000	0.000000	-10.000000	-10.000000	-40.000000	-40.000000	0.000000	0.000000	0.000000	0.000000	0.000000
1.510204	30.714286	30.714286	20.000000	20.000000	0.000000	0.000000	-10.000000	-10.000000	-40.000000	-40.000000	0.000000	0.000000	0.000000	0.000000	0.000000
1.551020	28.571429	28.571429	20.000000	20.000000	0.000000	0.000000	-10.000000	-10.000000	-40.000000	-40.000000	0.000000	0.000000	0.000000	0.000000	0.000000
1.591837	26.428571	26.428571	20.000000	20.000000	0.000000	0.000000	-10.000000	-10.000000	-40.000000	-40.000000	0.000000	0.000000	0.000000	0.000000	0.000000
1.632653	24.285714	24.285714	20.000000	20.000000	0.000000	0.000000	-10.000000	-10.000000	-40.000000	-40.000000	0.000000	0.000000	0.000000	0.000000	0.000000
1.673469	22.142857	22.142857	20.000000	20.000000	0.000000	0.000000	-10.000000	-10.000000	-40.000000	-40.000000	0.000000	0.000000	0.000000	0.000000	0.000000
1.714286	20.000000	20.000000	20.000000	20.000000	0.000000	0.000000	-10.000000	-10.000000	-40.000000	-40.000000	0.000000	0.000000	0.000000	0.000000	0.000000
1.755102	17.857143	17.857143	20.000000	20.000000	0.000000	0.000000	-10.000000	-10.000000	-40.000000	-40.000000	0.000000	0.000000	0.000000	0.000000	0.000000
1.795918	15.714286	15.714286	20.000000	20.000000	0.000000	0.000000	-10.000000	-10.000000	-40.000000	-40.000000	0.000000	0.000000	0.000000	0.000000	0.000000
1.836735	13.571429	13.571429	20.000000	20.000000	0.000000	0.000000	-10.000000	-10.000000	-40.000000	-40.000000	0.000000	0.000000	0.000000	0.000000	0.000000
1.877551	11.428571	11.428571	20.000000	20.000000	0.000000	0.000000	-10.000000	-10.000000	-40.000000	-40.000000	0.000000	0.000000	0.000000	0.000000	0.000000
1.918367	9.285714	9.285714	20.000000	20.000000	0.000000	0.000000	-10.000000	-10.000000	-40.000000	-40.000000	0.000000	0.000000	0.000000	0.000000	0.000000
1.959184	7.142857	7.142857	20.000000	20.000000	0.000000	0.000000	-10.000000	-10.000000	-40.000000	-40.000000	0.000000	0.000000	0.000000	0.000000	0.000000
2.000000	5.000000	5.000000	20.000000	20.000000	0.000000	0.000000	-10.000000	-10.000000	-40.000000	-40.000000	0.000000	0.000000	0.000000	0.000000	0.000000
